<?xml version="1.0" standalone="no"?>
<!DOCTYPE svg PUBLIC "-//W3C//DTD SVG 20010904//EN"
 "http://www.w3.org/TR/2001/REC-SVG-20010904/DTD/svg10.dtd">
<svg version="1.0" xmlns="http://www.w3.org/2000/svg"
 width="128.000000pt" height="128.000000pt" viewBox="0 0 128.000000 128.000000"
 preserveAspectRatio="xMidYMid meet">

<g transform="translate(0.000000,128.000000) scale(0.100000,-0.100000)"
fill="#0090d2" stroke="none">
<path d="M705 1225 c57 -71 99 -147 128 -233 22 -67 29 -76 73 -103 140 -88
275 -273 315 -435 l12 -48 13 37 c25 72 35 188 24 270 -22 157 -76 265 -189
377 -106 105 -221 162 -357 179 l-61 7 42 -51z"/>
<path d="M480 1254 c-217 -57 -398 -240 -455 -459 -21 -79 -21 -242 0 -320 56
-210 224 -387 426 -450 31 -10 63 -16 70 -12 8 3 61 93 119 201 58 108 111
196 118 196 29 0 91 42 112 74 11 19 24 52 27 73 l5 38 -20 -30 c-40 -62 -107
-97 -167 -88 -29 4 -32 1 -80 -92 -27 -53 -53 -99 -58 -102 -4 -2 -42 7 -85
21 l-77 26 -28 76 -29 76 39 114 c28 82 36 114 26 114 -19 0 -17 6 17 55 23
33 38 44 67 50 48 9 161 54 170 68 10 16 -317 0 -353 -18 -40 -20 -106 -28
-124 -15 -40 28 146 132 270 151 62 10 88 9 150 -3 41 -9 76 -15 78 -13 1 1
-11 31 -27 66 -16 36 -33 83 -37 104 -5 28 -19 51 -47 78 -22 20 -43 37 -46
36 -3 0 -31 -7 -61 -15z"/>
</g>
</svg>
